<svg width="25" height="24" viewBox="0 0 25 24" fill="none" xmlns="http://www.w3.org/2000/svg">
<g id="Cards/Add Card">
<path id="Union" fill-rule="evenodd" clip-rule="evenodd" d="M3.77032 4.85111C4.6134 3.94711 5.81105 3.44531 7.21486 3.44531H17.2861C18.6933 3.44531 19.8912 3.9468 20.7335 4.8516C21.5702 5.75033 22 6.98582 22 8.36158V9.49023V14.9496C22 16.3249 21.5702 17.5604 20.7334 18.4592C19.891 19.3641 18.6928 19.8659 17.2851 19.8659C16.8709 19.8659 16.5351 19.5301 16.5351 19.1159C16.5351 18.7017 16.8709 18.3659 17.2851 18.3659C18.3225 18.3659 19.1068 18.0051 19.6355 17.4372C20.1699 16.8631 20.5 16.0155 20.5 14.9496V10.2402H4V14.9496C4 16.0153 4.33024 16.863 4.86479 17.4371C5.39371 18.0052 6.17807 18.3659 7.21486 18.3659C7.62907 18.3659 7.96486 18.7017 7.96486 19.1159C7.96486 19.5301 7.62907 19.8659 7.21486 19.8659C5.80755 19.8659 4.60948 19.3641 3.767 18.4593C2.93014 17.5605 2.5 16.3251 2.5 14.9496V9.49023V8.36158C2.5 6.98469 2.93265 5.74932 3.77032 4.85111ZM20.5 8.36158V8.74023H4V8.36158C4 7.29631 4.33162 6.44855 4.8673 5.87416C5.39757 5.30557 6.18235 4.94531 7.21486 4.94531H17.2861C18.323 4.94531 19.1071 5.30588 19.6356 5.87368C20.1699 6.44754 20.5 7.29518 20.5 8.36158ZM12.2502 20.5577C12.6645 20.5577 13.0002 20.2219 13.0002 19.8077V15.573L14.0026 16.5792C14.2949 16.8727 14.7698 16.8736 15.0632 16.5812C15.3567 16.2889 15.3576 15.814 15.0652 15.5206L12.8231 13.2698C12.6855 13.1072 12.4799 13.0039 12.2502 13.0039C12.0266 13.0039 11.8259 13.1018 11.6885 13.257L9.43437 15.5207C9.14209 15.8142 9.1431 16.2891 9.43662 16.5813C9.73013 16.8736 10.205 16.8726 10.4973 16.5791L11.5002 15.5719V19.8077C11.5002 20.2219 11.836 20.5577 12.2502 20.5577Z" fill="#C2BBCF"/>
</g>
</svg>
