<svg width="20" height="21" viewBox="0 0 20 21" fill="none" xmlns="http://www.w3.org/2000/svg">
<path fill-rule="evenodd" clip-rule="evenodd" d="M10 2.375C5.51239 2.375 1.875 6.01239 1.875 10.5C1.875 14.9867 5.51234 18.625 10 18.625C14.4876 18.625 18.125 14.9867 18.125 10.5C18.125 6.01239 14.4876 2.375 10 2.375ZM3.125 10.5C3.125 6.70274 6.20274 3.625 10 3.625C13.7972 3.625 16.875 6.70275 16.875 10.5C16.875 14.2965 13.7972 17.375 10 17.375C6.20279 17.375 3.125 14.2965 3.125 10.5ZM13.3275 9.01811C13.5716 8.77404 13.5716 8.37831 13.3275 8.13423C13.0834 7.89015 12.6877 7.89015 12.4436 8.13423L9.0374 11.5405L7.55447 10.0582C7.31034 9.81418 6.91461 9.81427 6.67059 10.0584C6.42657 10.3025 6.42666 10.6983 6.67079 10.9423L8.59565 12.8663C8.83975 13.1103 9.2354 13.1102 9.47944 12.8662L13.3275 9.01811Z" fill="#C2BBCF"/>
</svg>
