<svg width="20" height="21" viewBox="0 0 20 21" fill="none" xmlns="http://www.w3.org/2000/svg">
<g id="Outline - Icon">
<path id="Union" fill-rule="evenodd" clip-rule="evenodd" d="M5.72148 2.375C4.81221 2.375 4.02646 2.70218 3.47117 3.29871C2.92047 3.89031 2.6416 4.69749 2.6416 5.58373V11.1628C2.6416 11.9701 2.8731 12.7133 3.33461 13.2879C3.80016 13.8675 4.4705 14.2379 5.2689 14.3369C5.61145 14.3794 5.92358 14.1361 5.96607 13.7936C6.00855 13.451 5.76529 13.1389 5.42274 13.0964C4.92964 13.0353 4.56037 12.8178 4.30918 12.5051C4.05396 12.1873 3.8916 11.7337 3.8916 11.1628V5.58373C3.8916 4.95715 4.08631 4.47247 4.38611 4.15041C4.68133 3.83327 5.12302 3.625 5.72148 3.625H10.0524C10.5859 3.625 10.9897 3.7885 11.2755 4.03906C11.5632 4.29134 11.7707 4.66676 11.8467 5.15677C11.8996 5.49787 12.219 5.73152 12.5601 5.67864C12.9012 5.62575 13.1348 5.30637 13.082 4.96526C12.9672 4.22492 12.6363 3.56983 12.0996 3.09919C11.5609 2.62683 10.8541 2.375 10.0524 2.375H5.72148ZM9.95 6.63607C9.04095 6.63607 8.25519 6.9621 7.69974 7.55787C7.1488 8.14879 6.87012 8.95529 6.87012 9.84117V15.4203C6.87012 16.3052 7.147 17.1118 7.69751 17.7032C8.25273 18.2996 9.03887 18.6253 9.95 18.6253H14.2788C15.1902 18.6253 15.9765 18.2996 16.5318 17.7032C17.0825 17.1119 17.3593 16.3052 17.3593 15.4203V9.84117C17.3593 8.95618 17.0825 8.14957 16.532 7.55822C15.9768 6.96182 15.1906 6.63607 14.2795 6.63607H9.95ZM8.12012 9.84117C8.12012 9.21494 8.31463 8.73139 8.61401 8.41029C8.90886 8.09403 9.35055 7.88607 9.95 7.88607H14.2795C14.882 7.88607 15.3232 8.09432 15.6171 8.40994C15.9156 8.73061 16.1093 9.21405 16.1093 9.84117V15.4203C16.1093 16.0474 15.9156 16.5308 15.617 16.8514C15.3231 17.167 14.8817 17.3753 14.2788 17.3753H9.95C9.34755 17.3753 8.90625 17.1671 8.61242 16.8515C8.31388 16.5308 8.12012 16.0473 8.12012 15.4203V9.84117Z" fill="#C2BBCF"/>
</g>
</svg>
