<svg width="6" height="6" viewBox="0 0 6 6" fill="none" xmlns="http://www.w3.org/2000/svg">
<g id="Filled - Icon">
<path id="Vector" d="M2.03533 5.15215L4.53539 2.65209L3.34791 1.46461L0.847851 3.96467C0.813432 3.99913 0.788983 4.04226 0.777097 4.0895L0.5 5.5L1.91023 5.2229C1.95758 5.21107 2.0009 5.18658 2.03533 5.15215ZM5.34247 1.84501C5.44333 1.74411 5.5 1.60728 5.5 1.46461C5.5 1.32194 5.44333 1.18511 5.34247 1.08421L4.91579 0.657534C4.81489 0.556665 4.67806 0.5 4.53539 0.5C4.39272 0.5 4.25589 0.556665 4.15499 0.657534L3.72831 1.08421L4.91579 2.27169L5.34247 1.84501Z" fill="white"/>
</g>
</svg>
