<svg width="40" height="40" viewBox="0 0 40 40" fill="none" xmlns="http://www.w3.org/2000/svg">
<g id="Filled - Icon">
<g id="Union">
<path d="M31.6488 3.44595C31.8139 3.37707 31.991 3.34159 32.1698 3.34174L32.177 3.33331C32.2761 3.33317 32.3748 3.34411 32.471 3.36554C32.5484 3.38269 32.6243 3.40663 32.6978 3.43738C32.8629 3.50626 33.013 3.60737 33.1394 3.73479C33.2657 3.86221 33.3661 4.01343 33.4345 4.18002C33.5029 4.34647 33.5381 4.52503 33.5381 4.70537V5.83515L34.4984 5.27566L34.519 5.2628C34.5457 5.24624 34.5724 5.22968 34.5992 5.21638C34.7586 5.11852 34.9363 5.05496 35.1212 5.02954C35.3061 5.00396 35.4942 5.01712 35.6739 5.06812C35.8535 5.11897 36.0208 5.20662 36.1656 5.32562C36.3102 5.44461 36.429 5.59228 36.5147 5.75947C36.6004 5.9268 36.6511 6.10995 36.6636 6.29782C36.6705 6.40085 36.6658 6.50403 36.6498 6.60558C36.6366 6.6891 36.6158 6.77129 36.5876 6.85141C36.5511 6.95444 36.5027 7.05244 36.4435 7.14335C36.4009 7.20898 36.3527 7.27092 36.2992 7.32857C36.1716 7.46604 36.0175 7.57557 35.8462 7.65037L34.8787 8.22065L35.8473 8.79345C36.0071 8.89471 36.1451 9.02715 36.2535 9.18296C36.3618 9.33876 36.4381 9.51481 36.4782 9.70077C36.5182 9.88672 36.521 10.0789 36.4865 10.2659C36.452 10.453 36.3808 10.6313 36.2771 10.7902L36.2699 10.7999C36.1695 10.9489 36.041 11.0765 35.8917 11.1754C35.7424 11.2743 35.5753 11.3426 35.3999 11.3763C35.2245 11.41 35.0441 11.4087 34.8692 11.372C34.6944 11.3355 34.5284 11.2645 34.3807 11.1633L33.4204 10.6087V11.6827C33.4092 12.0397 33.2606 12.3782 33.0059 12.6264C32.7514 12.8746 32.4111 13.0129 32.0571 13.0122C31.703 13.0115 31.3632 12.8715 31.1099 12.6221C30.8564 12.3729 30.7091 12.0336 30.6995 11.6767V10.5868L29.7392 11.1414C29.4805 11.2894 29.1807 11.3476 28.8859 11.3074C28.5911 11.2672 28.3174 11.1306 28.1069 10.9186L27.9533 10.6292C27.8689 10.4703 27.8163 10.2963 27.7987 10.1169C27.7923 10.0524 27.7905 9.98768 27.7932 9.92323C27.798 9.80838 27.8172 9.69441 27.8503 9.58399C27.902 9.41148 27.9869 9.25095 28.1001 9.11156C28.2134 8.97217 28.3527 8.85672 28.5102 8.77158L29.45 8.21223L28.4994 7.67092C28.4658 7.65392 28.4333 7.63455 28.4009 7.614L28.329 7.56788C28.26 7.52339 28.1952 7.47269 28.1356 7.41667C28.0625 7.34808 27.997 7.27151 27.9403 7.18799C27.8371 7.03633 27.7653 6.8653 27.729 6.68511C27.6927 6.50507 27.6927 6.31926 27.7288 6.13907C27.7649 5.95888 27.8365 5.78785 27.9395 5.63619C28.0424 5.48438 28.1744 5.35503 28.3278 5.2557C28.4812 5.15651 28.6528 5.08926 28.8324 5.05807C29.0119 5.02702 29.1959 5.03249 29.3734 5.07447C29.5508 5.11645 29.7181 5.19391 29.8652 5.30226L30.8086 5.86412V4.71498C30.8085 4.53464 30.8436 4.35593 30.9119 4.18933C30.9519 4.09177 31.0028 3.99953 31.0634 3.91424C31.1065 3.85364 31.1546 3.79658 31.207 3.74366C31.3335 3.61609 31.4835 3.51498 31.6488 3.44595Z" fill="#DBDFE6"/>
<path fill-rule="evenodd" clip-rule="evenodd" d="M25.0077 3.34174V9.23528C25.0076 10.0852 25.1734 10.9269 25.4956 11.7121C25.818 12.4974 26.2903 13.2109 26.8861 13.8119C27.4817 14.4131 28.1888 14.8898 28.9671 15.215C29.7454 15.5404 30.5795 15.7078 31.422 15.7078H36.2819V30.8093C36.2803 32.362 35.6683 33.8508 34.5801 34.9488C33.4919 36.047 32.0164 36.6647 30.4774 36.6666H9.13776C7.59874 36.6647 6.12332 36.047 5.03514 34.9488C3.94696 33.8508 3.33496 32.362 3.33334 30.8093V9.19907C3.33525 7.98237 3.71238 6.79642 4.41244 5.80573C5.1125 4.8149 6.10075 4.06857 7.24022 3.6699C7.62497 3.45733 8.05588 3.3447 8.49455 3.34174H25.0077ZM25.1614 21.3072H27.7444L27.7395 21.3131C28.0865 21.3026 28.4157 21.1563 28.6573 20.905C28.8991 20.6537 29.0342 20.3174 29.0342 19.9672C29.0342 19.6171 28.8991 19.2808 28.6573 19.0295C28.4157 18.7782 28.0865 18.6318 27.7395 18.6213H24.356C24.1097 18.6242 23.8696 18.6994 23.6652 18.8379C23.5461 18.9188 23.4421 19.0188 23.3571 19.1337C23.2961 19.2159 23.245 19.3056 23.205 19.4011L22.2375 21.5869L19.2644 14.6555C19.1391 14.3467 18.8975 14.1007 18.5925 13.9718C18.2874 13.8428 17.9442 13.8413 17.6381 13.9677L17.5853 13.992C17.3544 14.1047 17.1626 14.2848 17.0344 14.509L14.6831 18.6188H11.8649C11.5179 18.6293 11.1887 18.7758 10.9471 19.0271C10.7053 19.2783 10.5701 19.6147 10.5701 19.9649C10.5701 20.3149 10.7053 20.6513 10.9471 20.9026C11.1887 21.1539 11.5179 21.3003 11.8649 21.3108H15.3924C15.6147 21.3088 15.8324 21.2481 16.0242 21.1346C16.2158 21.0212 16.3747 20.8589 16.4847 20.6642L17.9622 18.0849L21.0601 25.3505C21.147 25.5839 21.302 25.7852 21.5048 25.9279C21.7077 26.0705 21.9486 26.1476 22.1958 26.149C22.443 26.1505 22.6847 26.0762 22.8892 25.936C23.0126 25.8513 23.1188 25.745 23.2034 25.6231C23.2589 25.543 23.3051 25.4559 23.3405 25.3638L25.1614 21.3072Z" fill="#DBDFE6"/>
</g>
</g>
</svg>
