<svg width="24" height="24" viewBox="0 0 24 24" fill="none" xmlns="http://www.w3.org/2000/svg">
<g id="Icon">
<path id="Path 1" d="M9.57094 19.6472H14.4278C14.4278 19.9561 14.365 20.2621 14.2429 20.5476C14.1209 20.833 13.942 21.0924 13.7165 21.3109C13.491 21.5294 13.2233 21.7027 12.9287 21.8209C12.634 21.9391 12.3183 22 11.9994 22C11.6805 22 11.3647 21.9391 11.07 21.8209C10.7754 21.7027 10.5077 21.5294 10.2822 21.3109C10.0567 21.0924 9.87783 20.833 9.75579 20.5476C9.63375 20.2621 9.57094 19.9561 9.57094 19.6472ZM20.5 16.7049C20.4999 17.1729 20.308 17.6217 19.9664 17.9526C19.6249 18.2836 19.1617 18.4695 18.6786 18.4696H5.32137C4.83831 18.4696 4.37504 18.2837 4.03347 17.9528C3.69189 17.6218 3.5 17.173 3.5 16.7049C3.5 16.2369 3.69189 15.7881 4.03347 15.4571C4.37504 15.1262 4.83831 14.9403 5.32137 14.9403H5.92821V10.2346C5.92817 8.87883 6.41157 7.56467 7.2966 6.51451C8.18164 5.46435 9.41397 4.74268 10.785 4.47162V3.17631C10.785 2.86434 10.913 2.56514 11.1406 2.34453C11.3683 2.12393 11.6771 2 11.9991 2C12.3211 2 12.63 2.12393 12.8576 2.34453C13.0853 2.56514 13.2133 2.86434 13.2133 3.17631V4.47162C14.5842 4.74285 15.8163 5.46459 16.7012 6.51473C17.586 7.56488 18.0693 8.87894 18.0692 10.2346V14.9403H18.6765C18.9159 14.94 19.1529 14.9855 19.3741 15.0741C19.5953 15.1627 19.7963 15.2926 19.9657 15.4565C20.135 15.6204 20.2694 15.815 20.361 16.0292C20.4527 16.2434 20.4999 16.473 20.5 16.7049Z" fill="white"/>
</g>
</svg>
