<svg width="98" height="12" viewBox="0 0 98 12" fill="none" xmlns="http://www.w3.org/2000/svg">
<g id="Logo" clip-path="url(#clip0_1_2057)">
<g id="katman_1_00000060741932549059987550000003848346351692717992_">
<g id="Group">
<g id="Group_2">
<path id="Vector" fill-rule="evenodd" clip-rule="evenodd" d="M60.7076 5.10856L56.4082 0.205701H55.383V11.5543H58.2272V6.51427L60.5423 9.05142H60.8399L63.155 6.51427V11.5543H65.9993V0.205701H65.0071L60.7076 5.10856ZM33.985 7.54284C36.7301 5.58856 35.9694 0.239987 31.67 0.239987H26.9075V11.5543H28.2304L29.6856 8.22856H31.1408L33.0259 11.5543H36.1348V11.1428L33.985 7.54284ZM31.67 5.65713H29.6856V2.81142C30.3471 2.81142 31.0416 2.81142 31.67 2.81142C33.2574 2.8457 33.1913 5.65713 31.67 5.65713ZM20.0615 11.5543H22.7734V11.1428L17.8456 0.102844H16.655L11.7272 11.1428V11.5543H14.4722L15.1006 10.1486H19.4L20.0615 11.5543ZM18.5071 7.6457H16.0266L17.2503 4.66284L18.5071 7.6457ZM1.57394 11.5543L3.02913 8.67427H5.04656C10.272 8.67427 10.272 0.274273 5.04656 0.239987H0.251038V11.5543H1.57394ZM5.01348 6.06856H3.02913V2.81142C3.65751 2.81142 4.38511 2.81142 5.01348 2.81142C6.63404 2.8457 6.56789 6.06856 5.01348 6.06856ZM48.537 11.5543H51.282V11.1428L46.3542 0.102844H45.1636L40.2688 11.1428V11.5543H42.9808L43.6091 10.1486H47.9086L48.537 11.5543ZM47.0156 7.6457H44.5352L45.7589 4.66284L47.0156 7.6457Z" fill="white"/>
</g>
<g id="Group_3">
<path id="Vector_2" d="M83.1308 0.274261V7.02855C83.1308 8.5714 82.7009 9.73712 81.8741 10.56C81.0472 11.3828 79.8566 11.7943 78.3684 11.7943C76.8801 11.7943 75.6895 11.3828 74.8627 10.56C74.0359 9.73712 73.6059 8.5714 73.6059 7.02855V0.274261H76.2187V6.92569C76.2187 7.67998 76.4171 8.26283 76.7809 8.63998C77.1778 9.01712 77.7069 9.22283 78.3684 9.22283C79.0298 9.22283 79.559 9.01712 79.9559 8.63998C80.3527 8.26283 80.5181 7.67998 80.5181 6.92569V0.274261H83.1308Z" fill="#00BBB4"/>
<path id="Vector_3" d="M94.4747 11.5885L91.0351 7.09712H90.1091V11.5885H87.4964V0.274261H90.1091V4.69712H91.0682L94.2101 0.274261H97.4181L93.1848 5.79426L97.7819 11.5885H94.4747Z" fill="#00BBB4"/>
</g>
</g>
</g>
</g>
<defs>
<clipPath id="clip0_1_2057">
<rect width="97.8947" height="12" fill="white" transform="translate(0.0526123)"/>
</clipPath>
</defs>
</svg>
