<svg width="20" height="20" viewBox="0 0 20 20" fill="none" xmlns="http://www.w3.org/2000/svg">
<g id="Outline - Icon">
<g id="Vector">
<path fill-rule="evenodd" clip-rule="evenodd" d="M10.3028 3.125C6.50548 3.125 3.42773 6.20275 3.42773 10C3.42773 13.7972 6.50548 16.875 10.3028 16.875C14.1 16.875 17.1778 13.7972 17.1778 10C17.1778 6.20275 14.1 3.125 10.3028 3.125ZM2.17773 10C2.17773 5.51239 5.81512 1.875 10.3028 1.875C14.7903 1.875 18.4278 5.51239 18.4278 10C18.4278 14.4876 14.7903 18.125 10.3028 18.125C5.81512 18.125 2.17773 14.4876 2.17773 10Z" fill="#2A0C55"/>
<path fill-rule="evenodd" clip-rule="evenodd" d="M8.91381 4.91459C8.44076 6.18562 8.13558 7.98341 8.13558 10C8.13558 12.0166 8.44076 13.8144 8.91381 15.0854C9.15122 15.7233 9.41892 16.1959 9.68455 16.4977C9.95106 16.8005 10.1619 16.875 10.3028 16.875C10.4436 16.875 10.6533 16.8005 10.9198 16.4977C11.1854 16.1959 11.4532 15.7233 11.6906 15.0854C12.1636 13.8144 12.4688 12.0166 12.4688 10C12.4688 7.98341 12.1636 6.18563 11.6906 4.9146C11.4532 4.27672 11.1854 3.80409 10.9198 3.50227C10.6533 3.19946 10.4436 3.125 10.3028 3.125C10.1619 3.125 9.95106 3.19946 9.68455 3.50227C9.41892 3.80408 9.15122 4.27671 8.91381 4.91459ZM8.74621 2.67642C9.1477 2.22024 9.67248 1.875 10.3028 1.875C10.933 1.875 11.4566 2.22024 11.8581 2.67642C12.2605 3.1336 12.5943 3.75926 12.8621 4.47857C13.3993 5.92194 13.7188 7.87415 13.7188 10C13.7188 12.1258 13.3993 14.0781 12.8621 15.5214C12.5943 16.2407 12.2605 16.8664 11.8581 17.3236C11.4566 17.7798 10.933 18.125 10.3028 18.125C9.67248 18.125 9.1477 17.7798 8.74621 17.3236C8.34384 16.8664 8.01003 16.2407 7.74232 15.5214C7.20512 14.078 6.88558 12.1258 6.88558 10C6.88558 7.87416 7.20512 5.92195 7.74232 4.47858C8.01003 3.75927 8.34384 3.1336 8.74621 2.67642Z" fill="#2A0C55"/>
<path fill-rule="evenodd" clip-rule="evenodd" d="M3.05109 6.35203C3.15286 6.02219 3.50274 5.83731 3.83258 5.93907C5.05215 6.31535 6.38512 6.57341 7.76361 6.71823C8.1069 6.75429 8.35596 7.06182 8.31989 7.40511C8.28383 7.7484 7.9763 7.99745 7.63301 7.96139C6.18664 7.80944 4.77258 7.53724 3.46405 7.13351C3.13422 7.03175 2.94933 6.68187 3.05109 6.35203Z" fill="#2A0C55"/>
<path fill-rule="evenodd" clip-rule="evenodd" d="M7.07671 7.27474C7.11271 6.93144 7.42032 6.68223 7.76361 6.71823C9.43665 6.89367 11.1646 6.89381 12.8461 6.7183C13.1895 6.68247 13.4968 6.93173 13.5327 7.27504C13.5685 7.61835 13.3192 7.92571 12.9759 7.96154C11.2083 8.14604 9.39293 8.14594 7.63301 7.96139C7.28972 7.92539 7.04071 7.61803 7.07671 7.27474Z" fill="#2A0C55"/>
<path fill-rule="evenodd" clip-rule="evenodd" d="M17.5582 6.35204C17.66 6.68187 17.4751 7.03175 17.1453 7.13351C15.8367 7.53724 14.4223 7.8096 12.9759 7.96154C12.6326 7.99761 12.3255 7.7484 12.2894 7.40511C12.2534 7.06182 12.5029 6.75436 12.8461 6.7183C14.2246 6.57348 15.5571 6.31535 16.7768 5.93907C17.1066 5.83731 17.4565 6.0222 17.5582 6.35204Z" fill="#2A0C55"/>
<path fill-rule="evenodd" clip-rule="evenodd" d="M7.63307 12.0362C9.39298 11.8516 11.2082 11.8516 12.9759 12.0361L12.9899 12.0377C14.4315 12.19 15.8408 12.4618 17.1452 12.8643C17.4751 12.966 17.6599 13.3159 17.5582 13.6457C17.4564 13.9756 17.1065 14.1605 16.7767 14.0587C15.5571 13.6824 14.2241 13.4243 12.8456 13.2795L12.8329 13.278C11.1599 13.1043 9.44123 13.1044 7.77673 13.278C7.77236 13.2785 7.76799 13.279 7.76359 13.2795C6.3851 13.4243 5.05212 13.6824 3.83254 14.0587C3.5027 14.1605 3.15282 13.9756 3.05106 13.6457C2.94929 13.3159 3.13418 12.966 3.46401 12.8643C4.76842 12.4618 6.1777 12.19 7.61932 12.0378C7.62388 12.0372 7.62847 12.0366 7.63307 12.0362Z" fill="#2A0C55"/>
</g>
</g>
</svg>
