<svg width="20" height="20" viewBox="0 0 20 20" fill="none" xmlns="http://www.w3.org/2000/svg">
<g id="Outline - Icon">
<path id="Union" fill-rule="evenodd" clip-rule="evenodd" d="M6.61324 3.69794C4.68653 3.69794 3.125 5.25947 3.125 7.18618V9.67619C3.125 10.0214 2.84518 10.3012 2.5 10.3012C2.15482 10.3012 1.875 10.0214 1.875 9.67619V7.18618C1.875 4.56911 3.99617 2.44794 6.61324 2.44794H13.3868C16.0038 2.44794 18.125 4.56911 18.125 7.18618V12.8108C18.125 15.4279 16.0038 17.549 13.3868 17.549H10.5319C10.1867 17.549 9.90692 17.2692 9.90692 16.924C9.90692 16.5788 10.1867 16.299 10.5319 16.299H13.3868C15.3135 16.299 16.875 14.7375 16.875 12.8108V12.6301H14.3249C12.8146 12.6301 11.5902 11.4057 11.5902 9.89544C11.5902 8.38578 12.8147 7.16148 14.3249 7.16148H16.8749C16.8616 5.24614 15.3052 3.69794 13.3868 3.69794H6.61324ZM16.875 8.41148V11.3801H14.3249C13.5049 11.3801 12.8402 10.7153 12.8402 9.89544C12.8402 9.07643 13.5048 8.41148 14.3249 8.41148H16.875ZM14.1613 9.22378C13.8161 9.22378 13.5363 9.5036 13.5363 9.84878C13.5363 10.194 13.8161 10.4738 14.1613 10.4738H14.1638C14.509 10.4738 14.7888 10.194 14.7888 9.84878C14.7888 9.5036 14.509 9.22378 14.1638 9.22378H14.1613ZM6.83095 12.5919C6.94847 12.7094 7.01435 12.8689 7.014 13.0351L7.00751 16.1657C7.0068 16.5109 6.72639 16.7901 6.38122 16.7894C6.03604 16.7887 5.7568 16.5083 5.75751 16.1631L5.76087 14.5455L2.94194 17.3645C2.69787 17.6085 2.30214 17.6085 2.05806 17.3645C1.81398 17.1204 1.81398 16.7247 2.05806 16.4806L4.87663 13.662L3.25976 13.6653C2.91458 13.6661 2.63418 13.3868 2.63346 13.0416C2.63275 12.6965 2.91199 12.4161 3.25717 12.4153L6.38771 12.4088C6.43501 12.4088 6.48176 12.414 6.52716 12.4243C6.6413 12.4502 6.74686 12.5078 6.83095 12.5919Z" fill="#2A0C55"/>
</g>
</svg>
