<svg width="20" height="20" viewBox="0 0 20 20" fill="none" xmlns="http://www.w3.org/2000/svg">
<g id="Outline - Icon">
<path id="Union" fill-rule="evenodd" clip-rule="evenodd" d="M11.9545 2.56993C10.8165 1.64336 9.18394 1.64336 8.04596 2.56993L3.40048 6.35429C2.67938 6.94234 2.26074 7.82312 2.26074 8.75375V14.7319C2.26074 16.6053 3.77936 18.125 5.65385 18.125H14.3466C16.2211 18.125 17.7397 16.6053 17.7397 14.7319V8.75375C17.7397 7.8231 17.3207 6.94213 16.5997 6.35409L11.9545 2.56993ZM11.1651 3.53916C10.4868 2.98695 9.51352 2.98704 8.83521 3.53925L4.19022 7.32322C3.76012 7.67408 3.51074 8.19916 3.51074 8.75375V14.7319C3.51074 15.9152 4.46995 16.875 5.65385 16.875H14.3466C15.5304 16.875 16.4897 15.9152 16.4897 14.7319V8.75375C16.4897 8.19918 16.24 7.67388 15.8099 7.32301L11.1651 3.53916ZM10.6134 9.60956C10.3688 9.366 10.3679 8.97028 10.6115 8.72567C10.855 8.48107 11.2508 8.48022 11.4954 8.72378L13.2085 10.4296C13.3263 10.5469 13.3925 10.7062 13.3925 10.8724V10.874C13.3925 11.0603 13.311 11.2275 13.1818 11.342L11.4955 13.0219C11.2509 13.2656 10.8552 13.2648 10.6116 13.0203C10.368 12.7757 10.3687 12.38 10.6133 12.1364L11.2531 11.499H7.49995C7.15478 11.499 6.87495 11.2192 6.87495 10.874C6.87495 10.5288 7.15478 10.249 7.49995 10.249H11.2556L10.6134 9.60956Z" fill="#2A0C55"/>
</g>
</svg>
