<svg width="25" height="24" viewBox="0 0 25 24" fill="none" xmlns="http://www.w3.org/2000/svg">
<g id="Users/User, Profile">
<g id="Group">
<g id="Group_2">
<path id="Path" d="M13.053 14.803C15.9232 14.803 18.25 17.1298 18.25 20C18.25 20.4142 17.9142 20.75 17.5 20.75C17.0858 20.75 16.75 20.4142 16.75 20C16.75 18.0241 15.1999 16.4102 13.2493 16.3081L13.053 16.303H7.947C5.90521 16.303 4.25 17.9582 4.25 20C4.25 20.4142 3.91421 20.75 3.5 20.75C3.08579 20.75 2.75 20.4142 2.75 20C2.75 17.2034 4.95899 14.9227 7.72732 14.8075L7.947 14.803H13.053Z" fill="#C2BBCF"/>
<path id="Path_2" fill-rule="evenodd" clip-rule="evenodd" d="M14.0001 4.88781C12.067 2.95472 8.93287 2.95472 6.99978 4.88781C5.06668 6.82091 5.06668 9.95508 6.99978 11.8882C8.93288 13.8213 12.067 13.8213 14.0001 11.8882C15.9332 9.95506 15.9332 6.8209 14.0001 4.88781ZM8.06044 5.94847C9.35963 4.64928 11.4372 4.60288 12.792 5.80927L12.9395 5.94847L13.0787 6.09595C14.2851 7.45074 14.2387 9.52831 12.9395 10.8275C11.5922 12.1748 9.40775 12.1748 8.06044 10.8275C6.71313 9.4802 6.71313 7.29578 8.06044 5.94847Z" fill="#C2BBCF"/>
<g id="Group 1">
<path id="Path_3" d="M22 11.25C22.4142 11.25 22.75 11.5858 22.75 12C22.75 12.3797 22.4678 12.6935 22.1018 12.7432L22 12.75H17C16.5858 12.75 16.25 12.4142 16.25 12C16.25 11.6203 16.5322 11.3065 16.8982 11.2568L17 11.25H22Z" fill="#C2BBCF"/>
<path id="Path_4" d="M19.4697 9.46967C19.7359 9.2034 20.1526 9.1792 20.4462 9.39705L20.5303 9.46967L22.5303 11.4697C22.7966 11.7359 22.8208 12.1526 22.6029 12.4462L22.5303 12.5303L20.5303 14.5303C20.2374 14.8232 19.7626 14.8232 19.4697 14.5303C19.2034 14.2641 19.1792 13.8474 19.3971 13.5538L19.4697 13.4697L20.939 12L19.4697 10.5303C19.2034 10.2641 19.1792 9.8474 19.3971 9.55379L19.4697 9.46967Z" fill="#C2BBCF"/>
</g>
</g>
</g>
</g>
</svg>
